0
SECTION
2
HEADER
9
$INSUNITS
70
4
9
$ACADVER
1
AC1014
9
$HANDSEED
5
FFFF
0
ENDSEC
0
SECTION
2
TABLES
0
TABLE
2
VPORT
5
8
100
AcDbSymbolTable
0
ENDTAB
0
TABLE
2
LTYPE
5
5
100
AcDbSymbolTable
0
LTYPE
5
14
100
AcDbSymbolTableRecord
100
AcDbLinetypeTableRecord
2
BYBLOCK
70
0
0
LTYPE
5
15
100
AcDbSymbolTableRecord
100
AcDbLinetypeTableRecord
2
BYLAYER
70
0
0
ENDTAB
0
TABLE
2
LAYER
5
2
100
AcDbSymbolTable
70
2
0
LAYER
5
50
100
AcDbSymbolTableRecord
100
AcDbLayerTableRecord
2
0
70
0
6
CONTINUOUS
0
ENDTAB
0
TABLE
2
STYLE
5
3
100
AcDbSymbolTable
70
1
0
STYLE
5
11
100
AcDbSymbolTableRecord
100
AcDbTextStyleTableRecord
2
STANDARD
70
0
0
ENDTAB
0
TABLE
2
VIEW
5
6
100
AcDbSymbolTable
70
0
0
ENDTAB
0
TABLE
2
UCS
5
7
100
AcDbSymbolTable
70
0
0
ENDTAB
0
TABLE
2
APPID
5
9
100
AcDbSymbolTable
70
2
0
APPID
5
12
100
AcDbSymbolTableRecord
100
AcDbRegAppTableRecord
2
ACAD
70
0
0
ENDTAB
0
TABLE
2
DIMSTYLE
5
A
100
AcDbSymbolTable
70
1
0
ENDTAB
0
TABLE
2
BLOCK_RECORD
5
1
100
AcDbSymbolTable
70
1
0
BLOCK_RECORD
5
1F
100
AcDbSymbolTableRecord
100
AcDbBlockTableRecord
2
*MODEL_SPACE
0
BLOCK_RECORD
5
1B
100
AcDbSymbolTableRecord
100
AcDbBlockTableRecord
2
*PAPER_SPACE
0
ENDTAB
0
ENDSEC
0
SECTION
2
BLOCKS
0
BLOCK
5
20
100
AcDbEntity
100
AcDbBlockBegin
2
*MODEL_SPACE
0
ENDBLK
5
21
100
AcDbEntity
100
AcDbBlockEnd
0
BLOCK
5
1C
100
AcDbEntity
100
AcDbBlockBegin
2
*PAPER_SPACE
0
ENDBLK
5
1D
100
AcDbEntity
100
AcDbBlockEnd
0
ENDSEC
0
SECTION
2
ENTITIES
0
CIRCLE
5
100
100
AcDbEntity
8
0
100
AcDbCircle
10
-65.000339499866101
20
121.09991908261102
30
0
40
1.25
210
0
220
0
230
1
0
CIRCLE
5
101
100
AcDbEntity
8
0
100
AcDbCircle
10
54.999660500133899
20
121.09991908261102
30
0
40
1.25
210
0
220
0
230
1
0
CIRCLE
5
102
100
AcDbEntity
8
0
100
AcDbCircle
10
-65.000339499866101
20
80.599922180175781
30
0
40
1.25
210
0
220
0
230
1
0
CIRCLE
5
103
100
AcDbEntity
8
0
100
AcDbCircle
10
54.999660500133899
20
80.599922180175781
30
0
40
1.25
210
0
220
0
230
1
0
CIRCLE
5
104
100
AcDbEntity
8
0
100
AcDbCircle
10
44.999660500135015
20
101.09991908261101
30
0
40
2.6499999999999968
210
0
220
0
230
1
0
CIRCLE
5
105
100
AcDbEntity
8
0
100
AcDbCircle
10
135.99966050013376
20
93.599919082610995
30
0
40
1.25
210
0
220
-0
230
1
0
LINE
5
106
100
AcDbEntity
8
0
100
AcDbLine
10
139.99966050013387
20
80.59992218017581
30
0
11
139.99966050013393
21
339.0113570349252
31
0
0
ARC
5
107
100
AcDbEntity
8
0
100
AcDbCircle
10
141.9996605001339
20
339.0113570349252
30
0
40
2.000000000000004
210
0
220
0
230
1
100
AcDbArc
50
93.275834141723465
51
180
0
ARC
5
108
100
AcDbEntity
8
0
100
AcDbCircle
10
141.59965986807688
20
345.99991908261097
30
0
40
4.9999999999999689
210
0
220
0
230
1
100
AcDbArc
50
-86.724165858277686
51
39.517644666845854
0
SPLINE
5
109
100
AcDbEntity
8
0
100
AcDbSpline
70
0
71
3
72
10
73
6
74
0
42
0.000000001
43
0.0000000001
44
0.0000000001
40
-0.13828346986542167
40
-0.13828346986542167
40
-0.13828346986542167
40
-0.13828346986542167
40
-0.069141734932712029
40
-0.069141734932712029
40
0
40
0
40
0
40
0
10
144.99966050013364
20
350.45412980660961
30
0
10
144.99966050013364
20
350.22365735683388
30
0
10
145.03949866271284
20
349.99490968376568
30
0
10
145.19532644915455
20
349.56110338898065
30
0
10
145.31014991134919
20
349.35929122467576
30
0
10
145.45680317668882
20
349.18149817118143
30
0
0
LINE
5
110
100
AcDbEntity
8
0
100
AcDbLine
10
144.99966050013364
20
350.45412980660961
30
0
11
144.99966050013364
21
364.74570835861238
31
0
0
SPLINE
5
111
100
AcDbEntity
8
0
100
AcDbSpline
70
0
71
3
72
10
73
6
74
0
42
0.000000001
43
0.0000000001
44
0.0000000001
40
-0.13828346986542164
40
-0.13828346986542164
40
-0.13828346986542164
40
-0.13828346986542164
40
-0.069141734932709628
40
-0.069141734932709628
40
0
40
0
40
0
40
0
10
145.45680317668882
20
366.01833999404056
30
0
10
145.31014991134919
20
365.84054694054623
30
0
10
145.19532644915455
20
365.63873477624128
30
0
10
145.03949866271284
20
365.20492848145631
30
0
10
144.99966050013364
20
364.97618080838805
30
0
10
144.99966050013364
20
364.74570835861238
30
0
0
ARC
5
112
100
AcDbEntity
8
0
100
AcDbCircle
10
141.59965986807686
20
369.1999190826109
30
0
40
4.9999999999998108
210
0
220
0
230
1
100
AcDbArc
50
-39.51764466684515
51
129.51765279717267
0
ARC
5
113
100
AcDbEntity
8
0
100
AcDbCircle
10
137.14544837781284
20
374.59991908261094
30
0
40
2.0000000000000284
210
0
220
0
230
1
100
AcDbArc
50
270
51
309.51765279717239
0
LINE
5
114
100
AcDbEntity
8
0
100
AcDbLine
10
137.14544837781284
20
372.59991908261094
30
0
11
122.85387135834085
21
372.59991908261105
31
0
0
ARC
5
115
100
AcDbEntity
8
0
100
AcDbCircle
10
122.85387135834087
20
374.599919082611
30
0
40
1.9999999999999836
210
0
220
0
230
1
100
AcDbArc
50
230.48234720282642
51
269.9999999999996
0
ARC
5
116
100
AcDbEntity
8
0
100
AcDbCircle
10
118.39965986807685
20
369.19991908261096
30
0
40
5.0000000000000631
210
0
220
-0
230
1
100
AcDbArc
50
50.482347202827789
51
219.51766092749531
0
SPLINE
5
117
100
AcDbEntity
8
0
100
AcDbSpline
70
0
71
3
72
10
73
6
74
0
42
0.000000001
43
0.0000000001
44
0.0000000001
40
-0.13828352704582014
40
-0.13828352704582014
40
-0.13828352704582014
40
-0.13828352704582014
40
-0.069141763522909169
40
-0.069141763522909169
40
0
40
0
40
0
40
0
10
114.99966050013363
20
364.74570682608231
30
0
10
114.99966050013363
20
364.97617937115865
30
0
10
114.95982230460812
20
365.20492713738525
30
0
10
114.80399439217386
20
365.63873358943766
30
0
10
114.68917083884209
20
365.84054581398476
30
0
10
114.54251746240317
20
366.0183388993762
30
0
0
LINE
5
118
100
AcDbEntity
8
0
100
AcDbLine
10
114.99966050013363
20
364.74570682608231
30
0
11
114.99966050013363
21
350.45413133913985
31
0
0
SPLINE
5
119
100
AcDbEntity
8
0
100
AcDbSpline
70
0
71
3
72
10
73
6
74
0
42
0.000000001
43
0.0000000001
44
0.0000000001
40
-0.13828352704582014
40
-0.13828352704582014
40
-0.13828352704582014
40
-0.13828352704582014
40
-0.069141763522910987
40
-0.069141763522910987
40
0
40
0
40
0
40
0
10
114.54251746240317
20
349.18149926584584
30
0
10
114.68917083884209
20
349.3592923512374
30
0
10
114.80399439217386
20
349.5611045757845
30
0
10
114.95982230460812
20
349.99491102783685
30
0
10
114.99966050013363
20
350.22365879406345
30
0
10
114.99966050013363
20
350.45413133913985
30
0
0
ARC
5
120
100
AcDbEntity
8
0
100
AcDbCircle
10
118.39965986807682
20
345.99991908261103
30
0
40
4.9999999999998321
210
0
220
0
230
1
100
AcDbArc
50
140.48233907250406
51
266.72417622211702
0
ARC
5
121
100
AcDbEntity
8
0
100
AcDbCircle
10
117.99966050013275
20
339.01135696257205
30
0
40
1.9999999999999929
210
-0
220
0
230
1
100
AcDbArc
50
0
51
86.724176222116427
0
LINE
5
122
100
AcDbEntity
8
0
100
AcDbLine
10
119.99966050013273
20
339.01135696257194
30
0
11
119.99966050013279
21
136.099919082611
31
0
0
ARC
5
123
100
AcDbEntity
8
0
100
AcDbCircle
10
114.99966050013279
20
136.099919082611
30
0
40
5
210
0
220
0
230
1
100
AcDbArc
50
-90
51
0
0
LINE
5
124
100
AcDbEntity
8
0
100
AcDbLine
10
114.99966050013279
20
131.099919082611
30
0
11
-125.00033949986501
21
131.09991908261102
31
0
0
ARC
5
125
100
AcDbEntity
8
0
100
AcDbCircle
10
-125.00033949986501
20
136.09991908261105
30
0
40
5.0000000000000178
210
0
220
0
230
1
100
AcDbArc
50
180
51
270
0
LINE
5
126
100
AcDbEntity
8
0
100
AcDbLine
10
-130.00033949986502
20
136.09991908261102
30
0
11
-130.00033949986491
21
339.01135696257199
31
0
0
ARC
5
127
100
AcDbEntity
8
0
100
AcDbCircle
10
-128.00033949986496
20
339.01135696257211
30
0
40
1.9999999999999594
210
0
220
0
230
1
100
AcDbArc
50
93.275823777881456
51
180
0
ARC
5
128
100
AcDbEntity
8
0
100
AcDbCircle
10
-128.40033886780904
20
345.99991908261103
30
0
40
4.9999999999999094
210
-0
220
0
230
1
100
AcDbArc
50
-86.724176222116185
51
39.517660927495328
0
SPLINE
5
129
100
AcDbEntity
8
0
100
AcDbSpline
70
0
71
3
72
10
73
6
74
0
42
0.000000001
43
0.0000000001
44
0.0000000001
40
-0.13828352704582014
40
-0.13828352704582014
40
-0.13828352704582014
40
-0.13828352704582014
40
-0.069141763522910987
40
-0.069141763522910987
40
0
40
0
40
0
40
0
10
-124.54319646213534
20
349.18149926584584
30
0
10
-124.68984983857426
20
349.3592923512374
30
0
10
-124.80467339190604
20
349.5611045757845
30
0
10
-124.9605013043403
20
349.99491102783685
30
0
10
-125.0003394998658
20
350.22365879406345
30
0
10
-125.0003394998658
20
350.45413133913985
30
0
0
LINE
5
130
100
AcDbEntity
8
0
100
AcDbLine
10
-125.00033949986579
20
350.45413133913974
30
0
11
-125.0003394998658
21
364.74570682608231
31
0
0
SPLINE
5
131
100
AcDbEntity
8
0
100
AcDbSpline
70
0
71
3
72
10
73
6
74
0
42
0.000000001
43
0.0000000001
44
0.0000000001
40
-0.13828352704582014
40
-0.13828352704582014
40
-0.13828352704582014
40
-0.13828352704582014
40
-0.069141763522909169
40
-0.069141763522909169
40
0
40
0
40
0
40
0
10
-125.0003394998658
20
364.74570682608231
30
0
10
-125.0003394998658
20
364.97617937115865
30
0
10
-124.9605013043403
20
365.20492713738525
30
0
10
-124.80467339190604
20
365.63873358943766
30
0
10
-124.68984983857426
20
365.84054581398476
30
0
10
-124.54319646213534
20
366.0183388993762
30
0
0
ARC
5
132
100
AcDbEntity
8
0
100
AcDbCircle
10
-128.40033886780904
20
369.19991908261102
30
0
40
4.9999999999999041
210
-0
220
0
230
1
100
AcDbArc
50
-39.517660927496152
51
129.51765279717299
0
ARC
5
133
100
AcDbEntity
8
0
100
AcDbCircle
10
-132.85455035807283
20
374.59991908261054
30
0
40
1.99999999999946
210
0
220
0
230
1
100
AcDbArc
50
269.99999999999432
51
309.51765279717591
0
LINE
5
134
100
AcDbEntity
8
0
100
AcDbLine
10
-132.85455035807303
20
372.59991908261105
30
0
11
-147.14612737754499
21
372.599919082611
31
0
0
ARC
5
135
100
AcDbEntity
8
0
100
AcDbCircle
10
-147.14612737754501
20
374.59991908261082
30
0
40
1.9999999999998193
210
0
220
0
230
1
100
AcDbArc
50
230.48234720282301
51
270.0000000000008
0
ARC
5
136
100
AcDbEntity
8
0
100
AcDbCircle
10
-151.60033886780903
20
369.19991908261102
30
0
40
5.000000000000008
210
0
220
-0
230
1
100
AcDbArc
50
50.482347202827505
51
219.51764466684529
0
SPLINE
5
137
100
AcDbEntity
8
0
100
AcDbSpline
70
0
71
3
72
10
73
6
74
0
42
0.000000001
43
0.0000000001
44
0.0000000001
40
-0.13828346986542164
40
-0.13828346986542164
40
-0.13828346986542164
40
-0.13828346986542164
40
-0.069141734932709628
40
-0.069141734932709628
40
0
40
0
40
0
40
0
10
-155.457482176421
20
366.01833999404062
30
0
10
-155.31082891108136
20
365.84054694054629
30
0
10
-155.19600544888672
20
365.63873477624134
30
0
10
-155.04017766244502
20
365.20492848145636
30
0
10
-155.00033949986579
20
364.97618080838811
30
0
10
-155.00033949986579
20
364.74570835861243
30
0
0
LINE
5
138
100
AcDbEntity
8
0
100
AcDbLine
10
-155.00033949986582
20
364.74570835861249
30
0
11
-155.00033949986579
21
350.45412980660967
31
0
0
SPLINE
5
139
100
AcDbEntity
8
0
100
AcDbSpline
70
0
71
3
72
10
73
6
74
0
42
0.000000001
43
0.0000000001
44
0.0000000001
40
-0.13828346986542167
40
-0.13828346986542167
40
-0.13828346986542167
40
-0.13828346986542167
40
-0.069141734932712029
40
-0.069141734932712029
40
0
40
0
40
0
40
0
10
-155.00033949986579
20
350.45412980660967
30
0
10
-155.00033949986579
20
350.22365735683394
30
0
10
-155.04017766244502
20
349.99490968376574
30
0
10
-155.19600544888672
20
349.56110338898071
30
0
10
-155.31082891108136
20
349.35929122467587
30
0
10
-155.457482176421
20
349.18149817118149
30
0
0
ARC
5
140
100
AcDbEntity
8
0
100
AcDbCircle
10
-151.60033886780903
20
345.99991908261103
30
0
40
4.9999999999999192
210
0
220
0
230
1
100
AcDbArc
50
140.48235533315315
51
266.7241658582775
0
ARC
5
141
100
AcDbEntity
8
0
100
AcDbCircle
10
-152.00033949986604
20
339.01135703492525
30
0
40
1.9999999999999574
210
0
220
0
230
1
100
AcDbArc
50
0
51
86.724165858276834
0
LINE
5
142
100
AcDbEntity
8
0
100
AcDbLine
10
-150.00033949986607
20
339.01135703492525
30
0
11
-150.00033949986613
21
80.599922180175838
31
0
0
ARC
5
143
100
AcDbEntity
8
0
100
AcDbCircle
10
-140.00033949986613
20
80.59992218017581
30
0
40
10
210
0
220
0
230
1
100
AcDbArc
50
180
51
269.99999999999983
0
LINE
5
144
100
AcDbEntity
8
0
100
AcDbLine
10
-140.00033949986616
20
70.59992218017581
30
0
11
129.99966050013393
21
70.599922180175767
31
0
0
ARC
5
145
100
AcDbEntity
8
0
100
AcDbCircle
10
129.9996605001339
20
80.599922180175753
30
0
40
9.9999999999999822
210
0
220
0
230
1
100
AcDbArc
50
-89.999999999999844
51
0
0
CIRCLE
5
146
100
AcDbEntity
8
0
100
AcDbCircle
10
-55.000339499867259
20
121.09991908261101
30
0
40
2.6500000000000057
210
0
220
0
230
1
0
CIRCLE
5
147
100
AcDbEntity
8
0
100
AcDbCircle
10
-55.000339499867259
20
101.09991908261101
30
0
40
2.6500000000000057
210
0
220
0
230
1
0
CIRCLE
5
148
100
AcDbEntity
8
0
100
AcDbCircle
10
44.999660500135015
20
121.09991908261101
30
0
40
2.6499999999999968
210
0
220
0
230
1
0
CIRCLE
5
149
100
AcDbEntity
8
0
100
AcDbCircle
10
-77.350339499865086
20
106.59991908261102
30
0
40
1.25
210
0
220
0
230
1
0
CIRCLE
5
150
100
AcDbEntity
8
0
100
AcDbCircle
10
67.349660500132842
20
80.599919082610981
30
0
40
1.25
210
0
220
0
230
1
0
CIRCLE
5
151
100
AcDbEntity
8
0
100
AcDbCircle
10
-77.350339499865086
20
80.599919082610995
30
0
40
1.25
210
0
220
0
230
1
0
CIRCLE
5
152
100
AcDbEntity
8
0
100
AcDbCircle
10
67.349660500132842
20
106.599919082611
30
0
40
1.25
210
0
220
0
230
1
0
CIRCLE
5
153
100
AcDbEntity
8
0
100
AcDbCircle
10
112.99966050013285
20
106.599919082611
30
0
40
1.25
210
0
220
-0
230
1
0
CIRCLE
5
154
100
AcDbEntity
8
0
100
AcDbCircle
10
141.59965986807686
20
369.1999190826109
30
0
40
2.6500000000000057
210
0
220
-0
230
1
0
CIRCLE
5
155
100
AcDbEntity
8
0
100
AcDbCircle
10
118.39965986807685
20
369.19991908261096
30
0
40
2.6500000000000057
210
0
220
-0
230
1
0
CIRCLE
5
156
100
AcDbEntity
8
0
100
AcDbCircle
10
123.6246605001337
20
106.599919082611
30
0
40
1.25
210
0
220
-0
230
1
0
CIRCLE
5
157
100
AcDbEntity
8
0
100
AcDbCircle
10
141.59965986807688
20
345.99991908261097
30
0
40
2.6500000000000057
210
0
220
-0
230
1
0
CIRCLE
5
158
100
AcDbEntity
8
0
100
AcDbCircle
10
129.99966012089922
20
346.59991908261105
30
0
40
1.25
210
0
220
-0
230
1
0
CIRCLE
5
159
100
AcDbEntity
8
0
100
AcDbCircle
10
123.6246605001337
20
80.599919082610967
30
0
40
1.25
210
0
220
-0
230
1
0
CIRCLE
5
160
100
AcDbEntity
8
0
100
AcDbCircle
10
118.39965986807682
20
345.99991908261103
30
0
40
2.6500000000000057
210
0
220
-0
230
1
0
CIRCLE
5
161
100
AcDbEntity
8
0
100
AcDbCircle
10
129.99966012089922
20
368.599919082611
30
0
40
1.25
210
0
220
-0
230
1
0
CIRCLE
5
162
100
AcDbEntity
8
0
100
AcDbCircle
10
129.99966050013273
20
362.599919082611
30
0
40
1.25
210
0
220
-0
230
1
0
CIRCLE
5
163
100
AcDbEntity
8
0
100
AcDbCircle
10
129.99966050013265
20
106.599919082611
30
0
40
1.25
210
0
220
-0
230
1
0
CIRCLE
5
164
100
AcDbEntity
8
0
100
AcDbCircle
10
140.99965986807672
20
357.59991908261094
30
0
40
1.25
210
0
220
-0
230
1
0
CIRCLE
5
165
100
AcDbEntity
8
0
100
AcDbCircle
10
118.99965986807679
20
357.599919082611
30
0
40
1.25
210
0
220
-0
230
1
0
CIRCLE
5
166
100
AcDbEntity
8
0
100
AcDbCircle
10
129.99966050013396
20
269.59991908261122
30
0
40
1.25
210
0
220
-0
230
1
0
CIRCLE
5
167
100
AcDbEntity
8
0
100
AcDbCircle
10
129.99966050013396
20
249.59991908261119
30
0
40
1.25
210
0
220
-0
230
1
0
CIRCLE
5
168
100
AcDbEntity
8
0
100
AcDbCircle
10
129.99966050013396
20
289.59991908261122
30
0
40
1.25
210
0
220
-0
230
1
0
CIRCLE
5
169
100
AcDbEntity
8
0
100
AcDbCircle
10
129.99966050013396
20
169.59991908261119
30
0
40
1.25
210
0
220
-0
230
1
0
CIRCLE
5
170
100
AcDbEntity
8
0
100
AcDbCircle
10
129.99966050013393
20
309.59991908261122
30
0
40
1.25
210
0
220
-0
230
1
0
CIRCLE
5
171
100
AcDbEntity
8
0
100
AcDbCircle
10
129.99966050013396
20
229.59991908261119
30
0
40
1.25
210
0
220
-0
230
1
0
CIRCLE
5
172
100
AcDbEntity
8
0
100
AcDbCircle
10
129.99966050013396
20
189.59991908261119
30
0
40
1.25
210
0
220
-0
230
1
0
CIRCLE
5
173
100
AcDbEntity
8
0
100
AcDbCircle
10
129.99966050013401
20
149.59991908261122
30
0
40
1.25
210
0
220
-0
230
1
0
CIRCLE
5
174
100
AcDbEntity
8
0
100
AcDbCircle
10
129.99966050013393
20
329.59991908261122
30
0
40
1.25
210
0
220
-0
230
1
0
CIRCLE
5
175
100
AcDbEntity
8
0
100
AcDbCircle
10
129.99966050013396
20
209.59991908261119
30
0
40
1.25
210
0
220
-0
230
1
0
CIRCLE
5
176
100
AcDbEntity
8
0
100
AcDbCircle
10
129.99966050013401
20
129.59991908261122
30
0
40
1.25
210
0
220
-0
230
1
0
CIRCLE
5
177
100
AcDbEntity
8
0
100
AcDbCircle
10
112.99966050013285
20
80.599919082610967
30
0
40
1.25
210
0
220
-0
230
1
0
CIRCLE
5
178
100
AcDbEntity
8
0
100
AcDbCircle
10
129.9996605001339
20
80.599922180175753
30
0
40
1.25
210
0
220
-0
230
1
0
CIRCLE
5
179
100
AcDbEntity
8
0
100
AcDbCircle
10
-140.00033949986613
20
80.59992218017581
30
0
40
1.25
210
0
220
-0
230
1
0
CIRCLE
5
180
100
AcDbEntity
8
0
100
AcDbCircle
10
-123.00033949986511
20
80.599919082610995
30
0
40
1.25
210
0
220
-0
230
1
0
CIRCLE
5
181
100
AcDbEntity
8
0
100
AcDbCircle
10
-140.00033949986624
20
129.59991908261125
30
0
40
1.25
210
0
220
-0
230
1
0
CIRCLE
5
182
100
AcDbEntity
8
0
100
AcDbCircle
10
-140.00033949986616
20
209.59991908261122
30
0
40
1.25
210
0
220
-0
230
1
0
CIRCLE
5
183
100
AcDbEntity
8
0
100
AcDbCircle
10
-140.0003394998661
20
329.59991908261122
30
0
40
1.25
210
0
220
-0
230
1
0
CIRCLE
5
184
100
AcDbEntity
8
0
100
AcDbCircle
10
-140.00033949986624
20
149.59991908261125
30
0
40
1.25
210
0
220
-0
230
1
0
CIRCLE
5
185
100
AcDbEntity
8
0
100
AcDbCircle
10
-140.00033949986619
20
189.59991908261122
30
0
40
1.25
210
0
220
-0
230
1
0
CIRCLE
5
186
100
AcDbEntity
8
0
100
AcDbCircle
10
-140.00033949986616
20
229.59991908261122
30
0
40
1.25
210
0
220
-0
230
1
0
CIRCLE
5
187
100
AcDbEntity
8
0
100
AcDbCircle
10
-140.00033949986613
20
309.59991908261122
30
0
40
1.25
210
0
220
-0
230
1
0
CIRCLE
5
188
100
AcDbEntity
8
0
100
AcDbCircle
10
-140.00033949986619
20
169.59991908261122
30
0
40
1.25
210
0
220
-0
230
1
0
CIRCLE
5
189
100
AcDbEntity
8
0
100
AcDbCircle
10
-140.00033949986616
20
289.59991908261122
30
0
40
1.25
210
0
220
-0
230
1
0
CIRCLE
5
190
100
AcDbEntity
8
0
100
AcDbCircle
10
-140.00033949986616
20
249.59991908261122
30
0
40
1.25
210
0
220
-0
230
1
0
CIRCLE
5
191
100
AcDbEntity
8
0
100
AcDbCircle
10
-140.00033949986616
20
269.59991908261122
30
0
40
1.25
210
0
220
-0
230
1
0
CIRCLE
5
192
100
AcDbEntity
8
0
100
AcDbCircle
10
-129.00033886780898
20
357.599919082611
30
0
40
1.25
210
0
220
-0
230
1
0
CIRCLE
5
193
100
AcDbEntity
8
0
100
AcDbCircle
10
-151.00033886780889
20
357.599919082611
30
0
40
1.25
210
0
220
-0
230
1
0
CIRCLE
5
194
100
AcDbEntity
8
0
100
AcDbCircle
10
-140.00033949986491
20
106.59991908261104
30
0
40
1.25
210
0
220
-0
230
1
0
CIRCLE
5
195
100
AcDbEntity
8
0
100
AcDbCircle
10
-140.00033949986491
20
362.599919082611
30
0
40
1.25
210
0
220
-0
230
1
0
CIRCLE
5
196
100
AcDbEntity
8
0
100
AcDbCircle
10
-140.00033912063139
20
368.599919082611
30
0
40
1.25
210
0
220
-0
230
1
0
CIRCLE
5
197
100
AcDbEntity
8
0
100
AcDbCircle
10
-128.40033886780904
20
345.99991908261103
30
0
40
2.6500000000000057
210
0
220
-0
230
1
0
CIRCLE
5
198
100
AcDbEntity
8
0
100
AcDbCircle
10
-146.00033949986599
20
93.599919082611024
30
0
40
1.25
210
0
220
-0
230
1
0
CIRCLE
5
199
100
AcDbEntity
8
0
100
AcDbCircle
10
-133.62533949986596
20
80.599919082610995
30
0
40
1.25
210
0
220
-0
230
1
0
CIRCLE
5
200
100
AcDbEntity
8
0
100
AcDbCircle
10
-140.00033912063139
20
346.59991908261105
30
0
40
1.25
210
0
220
-0
230
1
0
CIRCLE
5
201
100
AcDbEntity
8
0
100
AcDbCircle
10
-151.60033886780903
20
345.99991908261103
30
0
40
2.6500000000000057
210
0
220
-0
230
1
0
CIRCLE
5
202
100
AcDbEntity
8
0
100
AcDbCircle
10
-133.62533949986596
20
106.59991908261104
30
0
40
1.25
210
0
220
-0
230
1
0
CIRCLE
5
203
100
AcDbEntity
8
0
100
AcDbCircle
10
-128.40033886780904
20
369.19991908261102
30
0
40
2.6500000000000057
210
0
220
-0
230
1
0
CIRCLE
5
204
100
AcDbEntity
8
0
100
AcDbCircle
10
-151.60033886780903
20
369.19991908261102
30
0
40
2.6500000000000057
210
0
220
-0
230
1
0
CIRCLE
5
205
100
AcDbEntity
8
0
100
AcDbCircle
10
-123.00033949986511
20
106.59991908261104
30
0
40
1.25
210
0
220
-0
230
1
0
ENDSEC
0
SECTION
2
OBJECTS
0
DICTIONARY
5
C
100
AcDbDictionary
3
ACAD_GROUP
350
D
3
ACAD_MLINESTYLE
350
17
0
DICTIONARY
5
D
100
AcDbDictionary
0
DICTIONARY
5
1A
330
C
100
AcDbDictionary
0
DICTIONARY
5
17
100
AcDbDictionary
0
ENDSEC
0
EOF
