0
SECTION
2
HEADER
9
$INSUNITS
70
4
9
$ACADVER
1
AC1014
9
$HANDSEED
5
FFFF
0
ENDSEC
0
SECTION
2
TABLES
0
TABLE
2
VPORT
5
8
100
AcDbSymbolTable
0
ENDTAB
0
TABLE
2
LTYPE
5
5
100
AcDbSymbolTable
0
LTYPE
5
14
100
AcDbSymbolTableRecord
100
AcDbLinetypeTableRecord
2
BYBLOCK
70
0
0
LTYPE
5
15
100
AcDbSymbolTableRecord
100
AcDbLinetypeTableRecord
2
BYLAYER
70
0
0
ENDTAB
0
TABLE
2
LAYER
5
2
100
AcDbSymbolTable
70
2
0
LAYER
5
50
100
AcDbSymbolTableRecord
100
AcDbLayerTableRecord
2
0
70
0
6
CONTINUOUS
0
ENDTAB
0
TABLE
2
STYLE
5
3
100
AcDbSymbolTable
70
1
0
STYLE
5
11
100
AcDbSymbolTableRecord
100
AcDbTextStyleTableRecord
2
STANDARD
70
0
0
ENDTAB
0
TABLE
2
VIEW
5
6
100
AcDbSymbolTable
70
0
0
ENDTAB
0
TABLE
2
UCS
5
7
100
AcDbSymbolTable
70
0
0
ENDTAB
0
TABLE
2
APPID
5
9
100
AcDbSymbolTable
70
2
0
APPID
5
12
100
AcDbSymbolTableRecord
100
AcDbRegAppTableRecord
2
ACAD
70
0
0
ENDTAB
0
TABLE
2
DIMSTYLE
5
A
100
AcDbSymbolTable
70
1
0
ENDTAB
0
TABLE
2
BLOCK_RECORD
5
1
100
AcDbSymbolTable
70
1
0
BLOCK_RECORD
5
1F
100
AcDbSymbolTableRecord
100
AcDbBlockTableRecord
2
*MODEL_SPACE
0
BLOCK_RECORD
5
1B
100
AcDbSymbolTableRecord
100
AcDbBlockTableRecord
2
*PAPER_SPACE
0
ENDTAB
0
ENDSEC
0
SECTION
2
BLOCKS
0
BLOCK
5
20
100
AcDbEntity
100
AcDbBlockBegin
2
*MODEL_SPACE
0
ENDBLK
5
21
100
AcDbEntity
100
AcDbBlockEnd
0
BLOCK
5
1C
100
AcDbEntity
100
AcDbBlockBegin
2
*PAPER_SPACE
0
ENDBLK
5
1D
100
AcDbEntity
100
AcDbBlockEnd
0
ENDSEC
0
SECTION
2
ENTITIES
0
CIRCLE
5
100
100
AcDbEntity
8
0
100
AcDbCircle
10
57.5
20
-57.5
30
0
40
1.6500000000000004
210
0
220
-0
230
1
0
CIRCLE
5
101
100
AcDbEntity
8
0
100
AcDbCircle
10
57.5
20
57.5
30
0
40
1.6500000000000004
210
0
220
-0
230
1
0
CIRCLE
5
102
100
AcDbEntity
8
0
100
AcDbCircle
10
0
20
57.5
30
0
40
1.6500000000000001
210
0
220
-0
230
1
0
CIRCLE
5
103
100
AcDbEntity
8
0
100
AcDbCircle
10
-57.5
20
0
30
0
40
1.6500000000000004
210
0
220
-0
230
1
0
CIRCLE
5
104
100
AcDbEntity
8
0
100
AcDbCircle
10
0
20
-57.5
30
0
40
1.6500000000000001
210
0
220
-0
230
1
0
CIRCLE
5
105
100
AcDbEntity
8
0
100
AcDbCircle
10
57.5
20
0
30
0
40
1.6500000000000004
210
0
220
-0
230
1
0
CIRCLE
5
106
100
AcDbEntity
8
0
100
AcDbCircle
10
-57.5
20
57.5
30
0
40
1.6500000000000004
210
0
220
-0
230
1
0
CIRCLE
5
107
100
AcDbEntity
8
0
100
AcDbCircle
10
0
20
0
30
0
40
1.6500000000000001
210
0
220
-0
230
1
0
CIRCLE
5
108
100
AcDbEntity
8
0
100
AcDbCircle
10
-57.5
20
-57.5
30
0
40
1.6500000000000004
210
0
220
-0
230
1
0
CIRCLE
5
109
100
AcDbEntity
8
0
100
AcDbCircle
10
95
20
77.544826719043357
30
0
40
1.25
210
0
220
-0
230
1
0
CIRCLE
5
110
100
AcDbEntity
8
0
100
AcDbCircle
10
-95
20
77.544826719043357
30
0
40
1.25
210
0
220
-0
230
1
0
CIRCLE
5
111
100
AcDbEntity
8
0
100
AcDbCircle
10
95
20
61.544826719043357
30
0
40
1.25
210
0
220
-0
230
1
0
CIRCLE
5
112
100
AcDbEntity
8
0
100
AcDbCircle
10
-95
20
61.544826719043357
30
0
40
1.25
210
0
220
-0
230
1
0
LWPOLYLINE
5
113
100
AcDbEntity
8
0
100
AcDbPolyline
90
26
70
1
43
0.0
10
95
20
57.544826719043314
42
0.41421356237309503
10
100
20
62.544826719043314
10
100
20
76.544826719043328
42
0.41421356237309243
10
95
20
81.544826719043328
10
94.879954980065946
20
81.544826719043314
42
-0.36948076096435739
10
89.939977490032973
20
85.772413359521664
42
0.36948076096435739
10
85
20
90.000000000000014
10
-85
20
90
42
0.36948076096434868
10
-89.939977490032973
20
85.772413359521693
42
-0.36948076096435273
10
-94.879954980065946
20
81.5448267190434
10
-95
20
81.5448267190434
42
0.41421356237309243
10
-100
20
76.5448267190434
10
-100
20
62.544826719043314
42
0.41421356237309503
10
-95
20
57.544826719043307
42
-0.41421356237309503
10
-90
20
52.544826719043307
10
-90
20
-85
42
0.41421356237309293
10
-85
20
-90
10
-17
20
-90
42
-0.41421356237309503
10
-12.000000000000002
20
-95
42
0.41421356237309326
10
-7.0000000000000009
20
-100
10
7.0000000000000018
20
-100
42
0.4142135623730932
10
12.000000000000002
20
-95
42
-0.41421356237309453
10
16.999999999999993
20
-90
10
85
20
-90
42
0.41421356237309293
10
90
20
-85
10
90
20
52.544826719043307
42
-0.41421356237309553
0
CIRCLE
5
114
100
AcDbEntity
8
0
100
AcDbCircle
10
8
20
-95
30
0
40
1.25
210
0
220
0
230
1
0
CIRCLE
5
115
100
AcDbEntity
8
0
100
AcDbCircle
10
-8
20
-95
30
0
40
1.25
210
0
220
0
230
1
0
CIRCLE
5
116
100
AcDbEntity
8
0
100
AcDbCircle
10
-95
20
69.544826719043357
30
0
40
2.1499999999999986
210
0
220
-0
230
1
0
CIRCLE
5
117
100
AcDbEntity
8
0
100
AcDbCircle
10
95
20
69.544826719043314
30
0
40
2.1499999999999986
210
0
220
-0
230
1
0
CIRCLE
5
118
100
AcDbEntity
8
0
100
AcDbCircle
10
0
20
-95
30
0
40
2.1499999999999999
210
0
220
-0
230
1
0
ENDSEC
0
SECTION
2
OBJECTS
0
DICTIONARY
5
C
100
AcDbDictionary
3
ACAD_GROUP
350
D
3
ACAD_MLINESTYLE
350
17
0
DICTIONARY
5
D
100
AcDbDictionary
0
DICTIONARY
5
1A
330
C
100
AcDbDictionary
0
DICTIONARY
5
17
100
AcDbDictionary
0
ENDSEC
0
EOF
