0
SECTION
2
HEADER
9
$INSUNITS
70
4
9
$ACADVER
1
AC1014
9
$HANDSEED
5
FFFF
0
ENDSEC
0
SECTION
2
TABLES
0
TABLE
2
VPORT
5
8
100
AcDbSymbolTable
0
ENDTAB
0
TABLE
2
LTYPE
5
5
100
AcDbSymbolTable
0
LTYPE
5
14
100
AcDbSymbolTableRecord
100
AcDbLinetypeTableRecord
2
BYBLOCK
70
0
0
LTYPE
5
15
100
AcDbSymbolTableRecord
100
AcDbLinetypeTableRecord
2
BYLAYER
70
0
0
ENDTAB
0
TABLE
2
LAYER
5
2
100
AcDbSymbolTable
70
2
0
LAYER
5
50
100
AcDbSymbolTableRecord
100
AcDbLayerTableRecord
2
0
70
0
6
CONTINUOUS
0
ENDTAB
0
TABLE
2
STYLE
5
3
100
AcDbSymbolTable
70
1
0
STYLE
5
11
100
AcDbSymbolTableRecord
100
AcDbTextStyleTableRecord
2
STANDARD
70
0
0
ENDTAB
0
TABLE
2
VIEW
5
6
100
AcDbSymbolTable
70
0
0
ENDTAB
0
TABLE
2
UCS
5
7
100
AcDbSymbolTable
70
0
0
ENDTAB
0
TABLE
2
APPID
5
9
100
AcDbSymbolTable
70
2
0
APPID
5
12
100
AcDbSymbolTableRecord
100
AcDbRegAppTableRecord
2
ACAD
70
0
0
ENDTAB
0
TABLE
2
DIMSTYLE
5
A
100
AcDbSymbolTable
70
1
0
ENDTAB
0
TABLE
2
BLOCK_RECORD
5
1
100
AcDbSymbolTable
70
1
0
BLOCK_RECORD
5
1F
100
AcDbSymbolTableRecord
100
AcDbBlockTableRecord
2
*MODEL_SPACE
0
BLOCK_RECORD
5
1B
100
AcDbSymbolTableRecord
100
AcDbBlockTableRecord
2
*PAPER_SPACE
0
ENDTAB
0
ENDSEC
0
SECTION
2
BLOCKS
0
BLOCK
5
20
100
AcDbEntity
100
AcDbBlockBegin
2
*MODEL_SPACE
0
ENDBLK
5
21
100
AcDbEntity
100
AcDbBlockEnd
0
BLOCK
5
1C
100
AcDbEntity
100
AcDbBlockBegin
2
*PAPER_SPACE
0
ENDBLK
5
1D
100
AcDbEntity
100
AcDbBlockEnd
0
ENDSEC
0
SECTION
2
ENTITIES
0
LWPOLYLINE
5
100
100
AcDbEntity
8
OUTER_PROFILES
100
AcDbPolyline
90
68
70
1
43
0.0
10
73.965698277553116
20
56.159829287418709
10
75.85936591287934
20
78.946556221158659
42
-0.13787083871742256
10
76.426643085133492
20
80.46781740161552
42
0.1520812017490176
10
77.00311311391502
20
82.155815310561181
42
-0.44721359550042616
10
78.709767699925067
20
83.600574849051185
42
0.21342176528338899
10
81.062538393774986
20
84.282095253852845
10
91.555698363373764
20
93.165025097614603
42
0.41421356237309503
10
91.907067440908094
20
97.393090822192761
10
89.322603009545517
20
100.44604735693443
42
0.41421356237309503
10
85.094537284967345
20
100.79741643446872
10
74.601377315381001
20
91.914486590762863
42
0.21342176527916454
10
73.540838837207104
20
89.706487918636867
42
-0.44721359551966494
10
71.834184251194543
20
88.261728380050556
42
0.14520247261374827
10
70.146845020854471
20
88.007047709150982
42
-0.15216379697751617
10
68.378724309711799
20
87.764758253698318
10
8.1315541742206587
20
97.84795444473977
42
-0.16859467949455195
10
6.4050385976126822
20
98.790873758622041
42
0.13706900112641965
10
5.038422418975431
20
99.650498330546839
42
-0.44721359550009965
10
4.0846065782391037
20
101.67293135588108
42
0.21342176528340812
10
4.0352502824212797
20
104.1219237927954
10
-1.8291714233040957
20
116.55660942665634
42
0.41421356237309009
10
-5.822228292797166
20
117.99030982666815
10
-9.4400664724671639
20
116.28407218034731
42
0.41421356237309503
10
-10.873766872479003
20
112.29101531085422
10
-5.0093451667536373
20
99.856329676993312
42
0.21342176528334064
10
-3.1510697811011106
20
98.26045606323936
42
-0.44721359550003031
10
-2.1972539403646736
20
96.238023037905421
42
0.17309069159265472
10
-2.3133465007705216
20
94.224699192896338
42
-0.09228567818025972
10
-2.2024800465949417
20
93.132234092639251
10
-4.7315295479140786
20
62.699881913507831
42
-0.29325275459714401
10
-6.7013784374462171
20
60.127005050459573
42
0.29325275459714417
10
-8.6712273269783733
20
57.554128187411344
10
-9.9210649385250633
20
42.514684182272546
42
0.29325275459714378
10
-8.4029375587134307
20
39.651942618899028
42
-0.29325275459714401
10
-6.8848101789017857
20
36.78920105552551
10
-9.4138596802209733
20
6.3568488763941033
42
-0.092285678180260955
10
-9.7035362651556571
20
5.2976704957226328
42
0.17309069159265297
10
-9.921371480184078
20
3.2928018699625361
42
-0.44721359549996686
10
-11.195941937208795
20
1.4555566086865201
42
0.21342176528341039
10
-13.292153453344444
20
0.18831658421545328
10
-21.128696247485092
20
-11.107764408373189
42
0.4142135623730952
10
-20.373788780567033
20
-15.282703296116505
10
-17.087224544126091
20
-17.562724243333363
42
0.4142135623730932
10
-12.912285656382787
20
-16.807816776415315
10
-5.075742862242163
20
-5.5117357838262215
42
0.21342176528338219
10
-4.6228134643272991
20
-3.1044852857466889
42
-0.44721359549995493
10
-3.3482430073022282
20
-1.2672400244711879
42
0.13706900112645518
10
-1.8584773342488119
20
-0.64499214479369638
42
-0.16859467949455079
10
-1.3877787807814457e-16
20
3.3306690738754696e-15
10
61.085123841749301
20
1.27675647831893e-14
42
-0.15216379697922508
10
62.788995597159307
20
-0.53082583823740781
42
0.14520247261375555
10
64.411148623687936
20
-1.0605384781647396
42
-0.44721359550105871
10
65.855908162186708
20
-2.7671930641251565
42
0.21342176528331336
10
66.537428566996169
20
-5.1199637579719877
10
75.420358410714783
20
-15.613123727597277
42
0.41421356237309453
10
79.648424135293439
20
-15.964492805125621
10
82.70138067003144
20
-13.380028373758732
42
0.41421356237309404
10
83.052749747559773
20
-9.1519626491800707
10
74.169819903865871
20
1.3411973204164542
42
0.21342176528699527
10
71.961821231664146
20
2.4017357986154058
42
-0.4472135954909579
10
70.517061693167975
20
4.1083903845687066
42
0.1520812017534352
10
70.227133921849145
20
5.8683893965833942
42
-0.13787083871742242
10
69.918750011239169
20
7.4624214956963772
10
71.812417646565422
20
30.249148429436335
42
-0.29325275459714256
10
73.782266536097552
20
32.822025292484575
42
0.29325275459714256
10
75.752115425629682
20
35.394902155532819
10
77.001953037176378
20
50.434346160671666
42
0.29325275459714278
10
75.483825657364761
20
53.297087724045184
42
-0.29325275459714401
0
LWPOLYLINE
5
101
100
AcDbEntity
8
INTERIOR_PROFILES
100
AcDbPolyline
90
6
70
1
43
0.0
10
4.5715690494675085
20
53.899179868364165
42
-0.41421356237309476
10
0.0028382365839191293
20
59.296095539319936
10
1.9136233066126556
20
82.288798592150357
42
-0.76732698797884824
10
5.7156716932155032
20
82.976280443696325
10
18.557375066751419
20
55.74724534594467
42
-0.57735026918971422
10
16.582819005302007
20
52.900997226016401
0
LWPOLYLINE
5
102
100
AcDbEntity
8
INTERIOR_PROFILES
100
AcDbPolyline
90
6
70
1
43
0.0
10
63.337503907255993
20
49.015496958419419
10
42.831097528966495
20
50.719660886320604
42
-0.66817863791955778
10
41.704502284899661
20
54.239268450459306
10
67.15322199366102
20
75.782749388544147
42
-0.66817863791903809
10
70.438583506110163
20
74.090634149558866
10
68.734419578211771
20
53.584227771303006
42
-0.41421356237309553
0
LWPOLYLINE
5
103
100
AcDbEntity
8
INTERIOR_PROFILES
100
AcDbPolyline
90
8
70
1
43
0.0
10
25.052047586468404
20
57.214406616890642
42
-0.26794919243104914
10
22.587124409137594
20
58.924422327301833
10
8.1216762482883382
20
89.596381040207177
42
-0.60532690501614295
10
10.260731238875957
20
92.422064257002006
10
63.457665565937077
20
83.51882242215072
42
-0.63860125167566595
10
64.419761880865721
20
80.019779761145514
10
37.317829213986847
20
57.076780015930368
42
-0.19891236737947166
10
35.131025433043284
20
56.376803471834819
0
LWPOLYLINE
5
104
100
AcDbEntity
8
INTERIOR_PROFILES
100
AcDbPolyline
90
8
70
1
43
0.0
10
56.932439138415631
20
5
10
2.9956100049979018
20
4.999999999999992
42
-0.60532690501614173
10
1.3523278867774424
20
8.140010473608406
10
20.682299235571659
20
36.00343541447274
42
-0.26794919243104953
10
23.395677870324011
20
37.283113649211934
10
33.474655716898887
20
36.445510504156104
42
-0.1989123673794724
10
35.515917660530711
20
35.394164882529473
10
58.458917405784618
20
8.2922322156834412
42
-0.63860125167566562
0
LWPOLYLINE
5
105
100
AcDbEntity
8
INTERIOR_PROFILES
100
AcDbPolyline
90
6
70
1
43
0.0
10
-3.5643165495891651
20
16.372099518810792
10
-1.6535314795604767
20
39.364802571641199
42
-0.41421356237309553
10
3.7433841913953145
20
43.933533384524786
10
15.754634147229813
20
42.935350742177036
42
-0.57735026918971832
10
17.232279293835834
20
39.802210971800733
10
0.072094865399142116
20
15.066452073587948
42
-0.76732698797885113
0
LWPOLYLINE
5
106
100
AcDbEntity
8
INTERIOR_PROFILES
100
AcDbPolyline
90
6
70
1
43
0.0
10
61.854278370032112
20
12.019933181299361
42
0.66817863791903853
10
65.373885934168968
20
13.146528425368377
10
67.078049862067374
20
33.652934803624234
42
0.41421356237309459
10
62.509319049183802
20
39.049850474580019
10
42.002912670894297
20
40.754014402481218
42
0.66817863791955823
10
40.310797431910871
20
37.468652890029887
0
CIRCLE
5
107
100
AcDbEntity
8
INTERIOR_PROFILES
100
AcDbCircle
10
82.982443888372643
20
92.458408011157175
30
0
40
1.6500000000000026
210
0
220
0
230
1
0
CIRCLE
5
108
100
AcDbEntity
8
INTERIOR_PROFILES
100
AcDbCircle
10
-3.3655532668300605
20
108.09259555433287
30
0
40
1.6500000000000028
210
0
220
0
230
1
0
CIRCLE
5
109
100
AcDbEntity
8
INTERIOR_PROFILES
100
AcDbCircle
10
-27.883328983160375
20
46.944643932889406
30
0
40
2.1500000000000021
210
0
220
0
230
-1
0
CIRCLE
5
110
100
AcDbEntity
8
INTERIOR_PROFILES
100
AcDbCircle
10
70.397646341099417
20
43.411535072945583
30
0
40
2.1500000000000097
210
-0
220
0
230
1
0
CIRCLE
5
111
100
AcDbEntity
8
INTERIOR_PROFILES
100
AcDbCircle
10
3.3167582424480968
20
49.537495269998637
30
0
40
2.1500000000000035
210
0
220
0
230
-1
0
CIRCLE
5
112
100
AcDbEntity
8
INTERIOR_PROFILES
100
AcDbCircle
10
-74.713741324245177
20
-7.039869252597164
30
0
40
1.6500000000000066
210
0
220
0
230
-1
0
CIRCLE
5
113
100
AcDbEntity
8
INTERIOR_PROFILES
100
AcDbCircle
10
13.030454294304427
20
-8.2063031786226759
30
0
40
1.6500000000000017
210
0
220
0
230
-1
0
LINE
5
114
100
AcDbEntity
8
BEND
100
AcDbLine
10
70.857821895597581
20
2.9320050376637052
30
-6.1770627545640528e-14
11
65.515147959806043
21
-1.5908077172284241
31
-1.7856318269595583e-14
0
LINE
5
115
100
AcDbEntity
8
BEND
100
AcDbLine
10
-4.3963487653698028
20
-1.9008600367067974
30
-5.4908034805030725e-15
11
-10.147836179141329
21
2.0891766209226059
31
-1.236384078505884e-14
0
LINE
5
116
100
AcDbEntity
8
BEND
100
AcDbLine
10
73.010569598147455
20
88.602488582475161
30
1.0124042184337769e-12
11
77.533382353031911
21
83.25981464667727
31
-1.9894151997177067e-12
0
LINE
5
117
100
AcDbEntity
8
BEND
100
AcDbLine
10
-2.2219320882740199
20
97.462519256362526
30
9.9858527846325506e-14
11
4.1092847261482115
21
100.4484351374239
31
-1.6406893185884891e-12
0
LINE
5
118
100
AcDbEntity
8
BEND_EXTENT
100
AcDbLine
10
73.562859616227797
20
89.996614161492403
30
2.4868995751603512e-13
11
78.999548973001637
21
83.574403007140205
31
2.5757174171303637e-13
0
LINE
5
119
100
AcDbEntity
8
BEND_EXTENT
100
AcDbLine
10
76.981092334910926
20
81.865689067708047
30
0
11
71.544402978136944
21
88.287900222060429
31
0
0
LINE
5
120
100
AcDbEntity
8
BEND_EXTENT
100
AcDbLine
10
5.3129634528836487
20
99.554137694234328
30
0
11
-2.2975349108226695
21
95.96488959342426
31
0
0
LINE
5
121
100
AcDbEntity
8
BEND_EXTENT
100
AcDbLine
10
-3.4256108150089606
20
98.356816699552269
30
7.1054273576010031e-14
11
4.1848875486972883
21
101.94606480036241
31
1.7763568394002505e-14
0
LINE
5
122
100
AcDbEntity
8
BEND_EXTENT
100
AcDbLine
10
-3.0615620205293146
20
-1.2175191701633814
30
0
11
-9.9751912381664596
21
3.5787416978649045
31
0
0
LINE
5
123
100
AcDbEntity
8
BEND_EXTENT
100
AcDbLine
10
70.543233535132245
20
4.3981716576326768
30
0
11
64.121022380787622
21
-1.0385176991504519
31
0
0
LINE
5
124
100
AcDbEntity
8
BEND_EXTENT
100
AcDbLine
10
65.829736320222636
20
-3.0569743372387492
30
2.7533531010703887e-13
11
72.251947474567118
21
2.3797150195442285
31
2.7089441800853825e-13
0
LINE
5
125
100
AcDbEntity
8
BEND_EXTENT
100
AcDbLine
10
-11.48262292398198
20
1.4058357543792876
30
8.8817841970012536e-14
11
-4.5689937063449193
21
-3.3904251136490426
31
2.6645352591003763e-14
0
ENDSEC
0
SECTION
2
OBJECTS
0
DICTIONARY
5
C
100
AcDbDictionary
3
ACAD_GROUP
350
D
3
ACAD_MLINESTYLE
350
17
0
DICTIONARY
5
D
100
AcDbDictionary
0
DICTIONARY
5
1A
330
C
100
AcDbDictionary
0
DICTIONARY
5
17
100
AcDbDictionary
0
ENDSEC
0
EOF
