0
SECTION
2
HEADER
9
$INSUNITS
70
4
9
$ACADVER
1
AC1014
9
$HANDSEED
5
FFFF
0
ENDSEC
0
SECTION
2
TABLES
0
TABLE
2
VPORT
5
8
100
AcDbSymbolTable
0
ENDTAB
0
TABLE
2
LTYPE
5
5
100
AcDbSymbolTable
0
LTYPE
5
14
100
AcDbSymbolTableRecord
100
AcDbLinetypeTableRecord
2
BYBLOCK
70
0
0
LTYPE
5
15
100
AcDbSymbolTableRecord
100
AcDbLinetypeTableRecord
2
BYLAYER
70
0
0
ENDTAB
0
TABLE
2
LAYER
5
2
100
AcDbSymbolTable
70
2
0
LAYER
5
50
100
AcDbSymbolTableRecord
100
AcDbLayerTableRecord
2
0
70
0
6
CONTINUOUS
0
ENDTAB
0
TABLE
2
STYLE
5
3
100
AcDbSymbolTable
70
1
0
STYLE
5
11
100
AcDbSymbolTableRecord
100
AcDbTextStyleTableRecord
2
STANDARD
70
0
0
ENDTAB
0
TABLE
2
VIEW
5
6
100
AcDbSymbolTable
70
0
0
ENDTAB
0
TABLE
2
UCS
5
7
100
AcDbSymbolTable
70
0
0
ENDTAB
0
TABLE
2
APPID
5
9
100
AcDbSymbolTable
70
2
0
APPID
5
12
100
AcDbSymbolTableRecord
100
AcDbRegAppTableRecord
2
ACAD
70
0
0
ENDTAB
0
TABLE
2
DIMSTYLE
5
A
100
AcDbSymbolTable
70
1
0
ENDTAB
0
TABLE
2
BLOCK_RECORD
5
1
100
AcDbSymbolTable
70
1
0
BLOCK_RECORD
5
1F
100
AcDbSymbolTableRecord
100
AcDbBlockTableRecord
2
*MODEL_SPACE
0
BLOCK_RECORD
5
1B
100
AcDbSymbolTableRecord
100
AcDbBlockTableRecord
2
*PAPER_SPACE
0
ENDTAB
0
ENDSEC
0
SECTION
2
BLOCKS
0
BLOCK
5
20
100
AcDbEntity
100
AcDbBlockBegin
2
*MODEL_SPACE
0
ENDBLK
5
21
100
AcDbEntity
100
AcDbBlockEnd
0
BLOCK
5
1C
100
AcDbEntity
100
AcDbBlockBegin
2
*PAPER_SPACE
0
ENDBLK
5
1D
100
AcDbEntity
100
AcDbBlockEnd
0
ENDSEC
0
SECTION
2
ENTITIES
0
LWPOLYLINE
5
100
100
AcDbEntity
8
OUTER_PROFILES
100
AcDbPolyline
90
24
70
1
43
0.0
10
151.86904135572121
20
54.054253082787085
10
306.54780879312051
20
26.260995889617238
42
0.044475934465013238
10
320.69592639600756
20
24.999999999999979
10
340.32096863820135
20
24.999999999999986
42
-0.41421356237309725
10
343.32096863820135
20
21.999999999999993
10
343.32096863820135
20
7.9999999999999982
42
-0.41421356237309503
10
340.32096863820135
20
4.9999999999999947
10
321.16133044162939
20
5
42
0.012657401797821393
10
305.97974655964396
20
4.61561960424266
10
215.39407511430298
20
0.025625359717162954
42
-0.012657401797820296
10
214.38196952217061
20
3.3913843955346579e-15
10
0
20
0
42
-0.012657401797820845
10
-1.0121055921323785
20
0.025625359717151328
10
-91.59777703747281
20
4.6156196042426956
42
0.012657401797820845
10
-106.77936091945833
20
5.0000000000000524
10
-125.93899911603025
20
5
42
-0.41421356237309581
10
-128.93899911603026
20
8.0000000000000107
10
-128.93899911603026
20
22.000000000000011
42
-0.41421356237310114
10
-125.93899911603019
20
25.000000000000021
10
-106.31395687383656
20
25.000000000000036
42
0.044475934465013238
10
-92.165839270949533
20
26.260995889617185
10
62.512928166449448
20
54.054253082787085
42
-0.04447593446501355
10
73.124016368614718
20
55.000000000000014
10
141.25795315355595
20
54.999999999999986
42
-0.044475934465013238
0
CIRCLE
5
101
100
AcDbEntity
8
INTERIOR_PROFILES
100
AcDbCircle
10
-107.19098476108448
20
14.999937419998712
30
0
40
2.6500000000000012
210
0
220
0
230
-1
0
CIRCLE
5
102
100
AcDbEntity
8
INTERIOR_PROFILES
100
AcDbCircle
10
178.57034672068329
20
14.999937419998712
30
0
40
1.6499999999999915
210
0
220
0
230
1
0
CIRCLE
5
103
100
AcDbEntity
8
INTERIOR_PROFILES
100
AcDbCircle
10
275.44113995633256
20
14.999937419998709
30
0
40
1.6499999999999915
210
0
220
0
230
1
0
CIRCLE
5
104
100
AcDbEntity
8
INTERIOR_PROFILES
100
AcDbCircle
10
-23.246622801483827
20
27.999999999999972
30
0
40
1.6499999999999915
210
0
220
0
230
-1
0
CIRCLE
5
105
100
AcDbEntity
8
INTERIOR_PROFILES
100
AcDbCircle
10
-3.2466228014838272
20
27.999999999999972
30
0
40
1.6499999999999919
210
0
220
0
230
-1
0
CIRCLE
5
106
100
AcDbEntity
8
INTERIOR_PROFILES
100
AcDbCircle
10
-211.13534672068337
20
27.999999999999975
30
0
40
1.6499999999999915
210
0
220
0
230
-1
0
CIRCLE
5
107
100
AcDbEntity
8
INTERIOR_PROFILES
100
AcDbCircle
10
-191.13534672068337
20
7.999999999999976
30
0
40
1.6499999999999915
210
0
220
0
230
-1
0
CIRCLE
5
108
100
AcDbEntity
8
INTERIOR_PROFILES
100
AcDbCircle
10
-3.2466228014838361
20
7.9999999999999671
30
0
40
1.6499999999999919
210
0
220
0
230
-1
0
CIRCLE
5
109
100
AcDbEntity
8
INTERIOR_PROFILES
100
AcDbCircle
10
-23.246622801483827
20
7.9999999999999716
30
0
40
1.6499999999999915
210
0
220
0
230
-1
0
CIRCLE
5
110
100
AcDbEntity
8
INTERIOR_PROFILES
100
AcDbCircle
10
-191.13534672068337
20
27.999999999999975
30
0
40
1.6499999999999915
210
0
220
0
230
-1
0
CIRCLE
5
111
100
AcDbEntity
8
INTERIOR_PROFILES
100
AcDbCircle
10
-211.13534672068337
20
7.999999999999976
30
0
40
1.6499999999999915
210
0
220
0
230
-1
0
CIRCLE
5
112
100
AcDbEntity
8
INTERIOR_PROFILES
100
AcDbCircle
10
-127.19098476108363
20
44.999999999999993
30
0
40
1.6500000000000092
210
0
220
0
230
-1
0
CIRCLE
5
113
100
AcDbEntity
8
INTERIOR_PROFILES
100
AcDbCircle
10
-87.190984761083627
20
45
30
0
40
1.6500000000000092
210
0
220
0
230
-1
0
CIRCLE
5
114
100
AcDbEntity
8
INTERIOR_PROFILES
100
AcDbCircle
10
336.32096863820141
20
15.000000000000014
30
0
40
2.1500000000000341
210
0
220
0
230
1
0
CIRCLE
5
115
100
AcDbEntity
8
INTERIOR_PROFILES
100
AcDbCircle
10
-127.19098476108363
20
10
30
0
40
1.6500000000000092
210
0
220
0
230
-1
0
CIRCLE
5
116
100
AcDbEntity
8
INTERIOR_PROFILES
100
AcDbCircle
10
-87.190984761083641
20
9.9999999999999964
30
0
40
1.6499999999999915
210
0
220
0
230
-1
0
CIRCLE
5
117
100
AcDbEntity
8
INTERIOR_PROFILES
100
AcDbCircle
10
121.93899911603019
20
15.000000000000018
30
0
40
2.1499999999999986
210
0
220
0
230
-1
0
CIRCLE
5
118
100
AcDbEntity
8
INTERIOR_PROFILES
100
AcDbCircle
10
61.059170434161523
20
14.999937419998709
30
0
40
1.6499999999999915
210
0
220
0
230
-1
0
CIRCLE
5
119
100
AcDbEntity
8
INTERIOR_PROFILES
100
AcDbCircle
10
-35.811622801487331
20
14.999937419998712
30
0
40
1.6500000000000004
210
0
220
0
230
-1
0
LINE
5
120
100
AcDbEntity
8
BEND
100
AcDbLine
10
-108.15414091245881
20
5.0000000000000018
30
3.3206599694672054e-13
11
-108.15414091245881
21
25.000000000000028
31
3.8696453620435142e-13
0
LINE
5
121
100
AcDbEntity
8
BEND
100
AcDbLine
10
229.50574333850781
20
40.104201232843607
30
2.1809227163306814e-12
11
229.50574333850781
21
0.74066643515741326
31
2.1682376425302104e-12
0
LINE
5
122
100
AcDbEntity
8
BEND
100
AcDbLine
10
-15.123773816336996
20
0.74066643515739239
30
-4.4555392119020199e-13
11
-15.123773816336996
21
40.104201232843614
31
-4.5208712883130133e-13
0
LINE
5
123
100
AcDbEntity
8
BEND
100
AcDbLine
10
322.53611043462979
20
25.000000000000021
30
1.4386313185649899e-12
11
322.53611043462979
21
5.0000000000000044
31
1.3738219873296885e-12
0
LINE
5
124
100
AcDbEntity
8
BEND
100
AcDbLine
10
137.31172630835053
20
54.999999999999993
30
7.1077849758105375e-13
11
137.31172630835053
21
0
31
7.2944850120831522e-13
0
LINE
5
125
100
AcDbEntity
8
BEND
100
AcDbLine
10
77.070243213820163
20
0
30
7.1173137297602987e-14
11
77.070243213820163
21
55
31
4.7535341669542978e-14
0
LINE
5
126
100
AcDbEntity
8
BEND_EXTENT
100
AcDbLine
10
138.60564360260861
20
8.8817841970012523e-15
30
6.8385604699504632e-13
11
138.60564360260861
21
54.999999999999986
31
6.9273783119204757e-13
0
LINE
5
127
100
AcDbEntity
8
BEND_EXTENT
100
AcDbLine
10
227.88834672068333
20
40.394821082790038
30
2.5610136698421701e-12
11
227.88834672068333
21
0.65871262228085037
31
2.5610136698421701e-12
0
LINE
5
128
100
AcDbEntity
8
BEND_EXTENT
100
AcDbLine
10
323.50654840532195
20
5
30
2.1680282320410524e-12
11
323.50654840532195
21
25.000000000000028
31
2.1680282320410524e-12
0
LINE
5
129
100
AcDbEntity
8
BEND_EXTENT
100
AcDbLine
10
231.12313995633252
20
0.82262024803394951
30
2.6434425299722935e-12
11
231.12313995633252
21
39.813581382897183
31
2.6434425299722935e-12
0
LINE
5
130
100
AcDbEntity
8
BEND_EXTENT
100
AcDbLine
10
321.56567246393752
20
25.000000000000018
30
2.1789670485026398e-12
11
321.56567246393752
21
5.0000000000000044
31
2.1789670485026398e-12
0
LINE
5
131
100
AcDbEntity
8
BEND_EXTENT
100
AcDbLine
10
136.01780901409242
20
54.999999999999993
30
7.2804708293379585e-13
11
136.01780901409242
21
0
31
7.2804708293379585e-13
0
LINE
5
132
100
AcDbEntity
8
BEND_EXTENT
100
AcDbLine
10
-109.12457888315086
20
4.9999999999999956
30
1.1298575269186757e-12
11
-109.12457888315086
21
25.000000000000032
31
1.1254166348201751e-12
0
LINE
5
133
100
AcDbEntity
8
BEND_EXTENT
100
AcDbLine
10
-13.506377198512673
20
40.394821082790038
30
-2.4740905775303919e-14
11
-13.506377198512673
21
0.65871262228084149
31
-6.9773373813014142e-15
0
LINE
5
134
100
AcDbEntity
8
BEND_EXTENT
100
AcDbLine
10
-16.741170434161532
20
0.82262024803394951
30
-4.4997276526415385e-14
11
-16.741170434161514
21
39.813581382897169
31
-5.3879060723416511e-14
0
LINE
5
135
100
AcDbEntity
8
BEND_EXTENT
100
AcDbLine
10
75.776325919562055
20
0
30
-3.8761801014418024e-15
11
75.776325919562055
21
55
31
-3.8761801014418024e-15
0
LINE
5
136
100
AcDbEntity
8
BEND_EXTENT
100
AcDbLine
10
-107.18370294176651
20
25.000000000000028
30
1.112257372309337e-12
11
-107.18370294176651
21
5.0000000000000044
31
1.112257372309337e-12
0
LINE
5
137
100
AcDbEntity
8
BEND_EXTENT
100
AcDbLine
10
78.364160508078299
20
55
30
1.2956846789983438e-13
11
78.364160508078299
21
0
31
1.2956846789983438e-13
0
ENDSEC
0
SECTION
2
OBJECTS
0
DICTIONARY
5
C
100
AcDbDictionary
3
ACAD_GROUP
350
D
3
ACAD_MLINESTYLE
350
17
0
DICTIONARY
5
D
100
AcDbDictionary
0
DICTIONARY
5
1A
330
C
100
AcDbDictionary
0
DICTIONARY
5
17
100
AcDbDictionary
0
ENDSEC
0
EOF
